<?xml version="1.0" encoding="UTF-8"?>
<svg id="Layer_2" data-name="Layer 2" xmlns="http://www.w3.org/2000/svg" viewBox="0 0 469.47 448.86">
  <defs>
    <style>
      .cls-1 {
        fill: #e20039;
        stroke-width: 0px;
      }
    </style>
  </defs>
  <g id="layer">
    <g>
      <path class="cls-1" d="m234.55,186.42c-23.2,0-41.61-18.4-41.61-41.61V41.61c0-23.2,18.4-41.61,41.61-41.61s41.61,18.4,41.61,41.61v103.21c0,22.4-18.4,41.61-41.61,41.61"/>
      <path class="cls-1" d="m328.96,254.43c-17.6,0-33.6-11.2-40.01-28.8-7.2-21.6,4.8-45.61,27.2-52.81l98.41-32c21.6-7.2,45.61,4.8,52.81,27.2,7.2,21.6-4.8,45.61-26.4,52.81l-98.41,32c-4.8.8-9.6,1.6-13.6,1.6"/>
    </g>
    <path class="cls-1" d="m140.14,254.43c-4,0-8.8-.8-12.8-2.4l-98.41-32c-21.6-7.2-33.6-30.4-27.2-52.81,7.2-21.6,30.4-33.6,52.81-27.2l98.41,32c21.6,7.2,33.6,30.4,27.2,52.81-5.6,18.4-22.4,29.6-40.01,29.6"/>
    <path class="cls-1" d="m115.33,448.86c-8.8,0-16.8-2.4-24.8-8-18.4-13.6-22.4-40.01-9.6-58.41l60.81-84.01c13.6-18.4,40.01-22.4,58.41-8.8,18.4,13.6,22.4,40.01,8.8,58.41l-60.81,84.01c-7.2,11.2-20,16.8-32.8,16.8"/>
    <path class="cls-1" d="m353.76,448.86c-12.8,0-25.6-5.6-33.6-17.6l-60.81-84.01c-13.6-18.4-9.6-44.81,8.8-58.41,18.4-13.6,44.81-9.6,58.41,9.6l60.81,84.01c13.6,18.4,9.6,44.81-9.6,58.41-7.2,5.6-15.2,8-24,8"/>
  </g>
</svg>